<svg height="64" viewBox="0 0 76 64" width="76" xmlns="http://www.w3.org/2000/svg"><path d="m66.0957447 22.7672689c.8085106 1.4079469-1.0106383-2.6147585-4.0425532-2.6147585h-48.106383c-1.8191489 0-3.0319149.804541-4.04255318 2.4136232-1.0106383 1.6090822-9.90425532 15.0851456-9.90425532 17.9010394v18.3033099c0 2.8158938 2.42553191 5.2295171 5.25531915 5.2295171h65.48936175c2.8297872 0 5.2553191-2.212488 5.2553191-5.2295171v-18.3033099c0-2.6147586-9.9042553-17.6999041-9.9042553-17.6999041s-1.4148936-2.6147585 0 0zm-17.1808511 16.4930924c-1.2127659 0-2.2234042.6034059-2.4255319 1.8102175v.4022706c0 4.6261112-3.8404255 8.4476814-8.4893617 8.4476814s-8.4893617-3.8215702-8.4893617-8.4476814v-.6034059c-.606383-1.6090822-2.4255319-1.6090822-2.4255319-1.6090822h-22.43617023l7.68085103-13.8783338s1.4148937-2.4136233 3.4361702-2.4136233h45.2765958c1.6170213 0 1.8191489.6034058 3.0319149 2.4136233l7.680851 13.8783338zm-27.287234-26.3487208-5.8617022-5.63178766c-.6063829-.40227055-.6063829-1.40794691 0-2.01135273.606383-.60340582 1.6170213-.60340582 2.2234043 0l5.8617021 5.43065239c.606383.6034058.606383 1.6090822 0 2.212488-.6063829.4022706-1.6170212.6034058-2.2234042 0m15.9680851-2.4136233c-.2021277-.2011353-.4042553-.6034058-.4042553-1.00567635l-.2021277-7.84427567c0-.80454109.606383-1.60908219 1.4148936-1.60908219.8085107-.20113527 1.6170213.40227055 1.6170213 1.20681164l.2021277 7.84427567c0 .60340583-.4042554 1.2068116-1.0106383 1.4079469-.606383.4022706-1.212766.4022706-1.6170213 0m14.9574468 2.0113528c-.2021277-.2011353-.4042553-.6034059-.4042553-1.0056764 0-.4022706.2021276-.8045411.4042553-1.0056764l5.4574468-5.83292291c.606383-.60340583 1.6170213-.60340583 2.2234043 0 .6063829.60340582.6063829 1.60908218 0 2.212488l-5.4574469 5.83292291c-.2021276.2011353-.6063829.4022706-1.0106383.4022706-.6063829-.2011353-1.0106383-.2011353-1.2127659-.6034058" fill="#ddd"/></svg>