<svg height="42" viewBox="0 0 42 42" width="42" xmlns="http://www.w3.org/2000/svg"><path d="m17.5234653 18.2248453c-.2500713.7504454-.3465774 1.552974-.2722429 2.3595564l.0268886.2915723c.0862956.9691023.6645453 1.7982232 1.4881404 2.2326749-2.5640882.6274737-4.5021005 3.5250288-4.5021005 7.0045586 0 3.9389366 2.4835526 7.1320755 5.5471699 7.1320755 3.0636172 0 5.5471698-3.1931389 5.5471698-7.1320755 0-3.3256473-1.7703852-6.1196574-4.1655327-6.9090864.2343832-.0999244.4554679-.2328803.6562046-.3950965 1.8959461-1.5183777 3.789173-3.046577 5.6772516-4.5826436l9.0962274.0000341c1.6568543 0 3 1.3431457 3 3v17.7735849c0 1.6568542-1.3431457 3-3 3h-33.6226415c-1.65685425 0-3-1.3431458-3-3v-17.7735849c0-1.6568543 1.34314575-3 3-3zm-15.93855964 16.6430792v3.5471698c0 1.0543618.81587779 1.9181652 1.85073766 1.9945143l.14926234.0054857h3.54716981l-.00419803-.2178176c-.11439521-2.9626561-2.55229776-5.3293522-5.54297178-5.3293522zm36.45283014 0-.2178176.0041981c-2.8885897.1115353-5.2106449 2.4318548-5.3249423 5.3197353l-.0044099.2232364h3.5471698c1.0543618 0 1.9181652-.8158778 1.9945143-1.8507376l.0054857-.1492624zm-30.90566033-15.0566037h-3.54716981c-1.05436179 0-1.91816512.8158777-1.99451426 1.8507376l-.00548574.1492624v3.5471698l.21781761-.0041981c2.96265618-.1143952 5.3293522-2.5522977 5.3293522-5.5429717zm28.90566033 0h-3.5471698l.0041981.2178176c.1115353 2.8885897 2.4318548 5.2106449 5.3197353 5.3249423l.2232364.0044099v-3.5471698c0-1.1045695-.8954305-2-2-2zm-1.1777358-17.53982534c2.02356.27719904 4.40328.35951879 7.14.24863916v9.63207818h-8.9575964c-.5518376 0-.6894919.445555-1.6184356 1.3659198-1.0117804 1.0024367-1.601448.7796018-3.117648 2.0269976-2.4742616 2.022939-4.9587334 4.0333578-7.45332 6.0311794-.179801.145298-.3970532.2367417-.62664.2637591h-.28812c-.5782646-.0662757-1.0302912-.5298823-1.08192-1.1096362l-.02688-.291479c-.1142375-1.2395589.3272701-2.4659306 1.2054-3.3482286 1.93956-1.9479533 3.0156-3.2927887 3.23148-4.0345062.25368-.876117.7308-2.5435113-.42-3.1138694-1.32132-.65435776-2.66448-.04787986-4.03032 1.8177538-1.2986762 1.9710196-1.690801 3.598155-1.1763742 4.8814063h-4.6692393c-.5306083-1.4908646-.9251105-3.118-1.1835065-4.8814063-.1096077-1.2955344.2132658-2.59086418.91812-3.68338744 2.03868-3.16006921 3.5994-5.51038119 4.68132-7.04925597 1.9278-2.74343065 14.43876.82907717 17.47368 1.24403577z" fill="#df4c43" fill-rule="evenodd"/></svg>