<?xml version="1.0" standalone="no"?>
<!DOCTYPE svg PUBLIC "-//W3C//DTD SVG 20010904//EN"
 "http://www.w3.org/TR/2001/REC-SVG-20010904/DTD/svg10.dtd">
<svg version="1.0" xmlns="http://www.w3.org/2000/svg"
 width="29.000000pt" height="29.000000pt" viewBox="0 0 29.000000 29.000000"
 preserveAspectRatio="xMidYMid meet">

<g transform="translate(0.000000,29.000000) scale(0.100000,-0.100000)"
fill="#000000" stroke="none">
<path d="M116 228 c-24 -33 5 -75 44 -63 28 9 35 43 14 66 -22 25 -39 24 -58
-3z m58 -13 c7 -19 -20 -46 -39 -39 -8 4 -15 17 -15 30 0 19 5 24 24 24 13 0
26 -7 30 -15z"/>
<path d="M67 112 c-10 -10 -16 -32 -16 -48 2 -27 2 -27 6 -4 8 44 31 60 87 60
63 0 76 -8 86 -51 l8 -34 1 31 c2 47 -24 64 -96 64 -45 0 -64 -4 -76 -18z"/>
</g>
</svg>
