<?xml version="1.0" standalone="no"?>
<!DOCTYPE svg PUBLIC "-//W3C//DTD SVG 20010904//EN"
 "http://www.w3.org/TR/2001/REC-SVG-20010904/DTD/svg10.dtd">
<svg version="1.0" xmlns="http://www.w3.org/2000/svg"
 width="24.000000pt" height="24.000000pt" viewBox="0 0 24.000000 24.000000"
 preserveAspectRatio="xMidYMid meet">

<g transform="translate(0.000000,24.000000) scale(0.100000,-0.100000)"
fill="#000000" stroke="none">
<path d="M27 214 c-4 -4 -7 -48 -7 -97 0 -86 1 -89 18 -74 12 11 41 17 97 19
l80 3 0 75 0 75 -90 3 c-50 1 -94 0 -98 -4z m173 -74 l0 -60 -68 0 c-40 0 -73
-5 -80 -12 -9 -9 -12 4 -12 60 l0 72 80 0 80 0 0 -60z"/>
</g>
</svg>
