<?xml version="1.0" standalone="no"?>
<!DOCTYPE svg PUBLIC "-//W3C//DTD SVG 20010904//EN"
 "http://www.w3.org/TR/2001/REC-SVG-20010904/DTD/svg10.dtd">
<svg version="1.0" xmlns="http://www.w3.org/2000/svg"
 width="24.000000pt" height="24.000000pt" viewBox="0 0 24.000000 24.000000"
 preserveAspectRatio="xMidYMid meet">

<g transform="translate(0.000000,24.000000) scale(0.100000,-0.100000)"
fill="#000000" stroke="none">
<path d="M88 191 c-8 -10 -25 -21 -38 -23 -23 -3 -25 -7 -24 -55 3 -83 2 -83
94 -83 92 0 91 0 94 83 1 48 -1 52 -24 55 -13 2 -30 13 -38 23 -7 10 -22 19
-32 19 -10 0 -25 -9 -32 -19z m52 -11 c0 -5 -9 -10 -20 -10 -11 0 -20 5 -20
10 0 6 9 10 20 10 11 0 20 -4 20 -10z m60 -55 c0 -20 -5 -25 -25 -25 -16 0
-25 6 -25 15 0 10 -10 15 -30 15 -20 0 -30 -5 -30 -15 0 -9 -9 -15 -25 -15
-20 0 -25 5 -25 25 0 25 1 25 80 25 79 0 80 0 80 -25z m-70 -25 c0 -5 -4 -10
-10 -10 -5 0 -10 5 -10 10 0 6 5 10 10 10 6 0 10 -4 10 -10z m60 -37 c0 -9
-19 -13 -70 -13 -51 0 -70 4 -70 13 0 9 19 13 70 13 51 0 70 -4 70 -13z"/>
</g>
</svg>
